<svg xmlns="http://www.w3.org/2000/svg" xmlns:xlink="http://www.w3.org/1999/xlink" width="500" zoomAndPan="magnify" viewBox="0 0 375 374.999991" height="500" preserveAspectRatio="xMidYMid meet" version="1.0"><defs><g/><clipPath id="6f02a6d3cd"><path d="M 5.578125 11.203125 L 369 11.203125 L 369 292 L 5.578125 292 Z M 5.578125 11.203125 " clip-rule="nonzero"/></clipPath><clipPath id="ac2f5b6260"><path d="M 97 303 L 159 303 L 159 363.703125 L 97 363.703125 Z M 97 303 " clip-rule="nonzero"/></clipPath><clipPath id="af7fe26f9e"><path d="M 270 303 L 332 303 L 332 363.703125 L 270 363.703125 Z M 270 303 " clip-rule="nonzero"/></clipPath></defs><g clip-path="url(#6f02a6d3cd)"><path fill="#000000" d="M 365.339844 69.507812 C 362.457031 66.011719 358.160156 63.988281 353.625 63.988281 L 94.359375 63.988281 L 81.878906 22.070312 C 79.960938 15.625 74.039062 11.210938 67.316406 11.210938 L 20.929688 11.210938 C 12.535156 11.210938 5.730469 18.011719 5.730469 26.40625 C 5.730469 34.796875 12.535156 41.597656 20.929688 41.597656 L 55.980469 41.597656 L 112.773438 232.347656 C 106.617188 243.636719 100.777344 259.792969 107.398438 273.328125 C 113.261719 285.3125 126.507812 291.390625 146.761719 291.390625 C 147.128906 291.390625 147.496094 291.375 147.863281 291.339844 C 149.179688 291.21875 280.089844 279.214844 325.226562 281.773438 C 331.808594 282.125 337.507812 277.089844 337.882812 270.472656 C 338.257812 263.855469 333.195312 258.191406 326.578125 257.824219 C 280.75 255.238281 157 266.410156 146.230469 267.398438 C 135.125 267.324219 129.980469 264.878906 128.953125 262.789062 C 127.808594 260.460938 128.625 256.058594 130.550781 251.078125 C 130.871094 251.058594 131.191406 251.054688 131.519531 251.015625 L 329.851562 227.027344 C 336.410156 226.230469 341.703125 221.292969 342.949219 214.816406 L 368.546875 82.066406 C 369.398438 77.609375 368.226562 73.003906 365.339844 69.507812 Z M 255.253906 143.21875 L 192.875 143.21875 L 192.875 94.378906 L 255.253906 94.378906 Z M 122.238281 157.613281 L 178.480469 157.613281 L 178.480469 214.722656 L 140.601562 219.308594 Z M 192.875 157.613281 L 255.253906 157.613281 L 255.253906 205.4375 L 192.875 212.980469 Z M 325.808594 143.21875 L 269.652344 143.21875 L 269.652344 94.378906 L 335.222656 94.378906 Z M 178.480469 94.378906 L 178.480469 143.21875 L 117.949219 143.21875 L 103.40625 94.378906 Z M 269.652344 203.695312 L 269.652344 157.613281 L 323.03125 157.613281 L 315.207031 198.179688 Z M 269.652344 203.695312 " fill-opacity="1" fill-rule="nonzero"/></g><g clip-path="url(#ac2f5b6260)"><path fill="#000000" d="M 158.484375 333.460938 C 158.484375 334.457031 158.4375 335.449219 158.339844 336.4375 C 158.242188 337.429688 158.097656 338.410156 157.902344 339.386719 C 157.707031 340.359375 157.46875 341.324219 157.179688 342.277344 C 156.890625 343.226562 156.554688 344.160156 156.175781 345.082031 C 155.792969 346 155.371094 346.898438 154.902344 347.773438 C 154.433594 348.652344 153.921875 349.503906 153.367188 350.328125 C 152.816406 351.15625 152.226562 351.953125 151.59375 352.722656 C 150.964844 353.492188 150.296875 354.226562 149.59375 354.929688 C 148.890625 355.632812 148.152344 356.300781 147.386719 356.929688 C 146.617188 357.5625 145.820312 358.152344 144.992188 358.707031 C 144.164062 359.257812 143.3125 359.769531 142.4375 360.238281 C 141.558594 360.707031 140.660156 361.132812 139.742188 361.511719 C 138.824219 361.890625 137.890625 362.226562 136.9375 362.515625 C 135.984375 362.804688 135.023438 363.046875 134.046875 363.238281 C 133.070312 363.433594 132.089844 363.578125 131.101562 363.675781 C 130.109375 363.773438 129.117188 363.824219 128.125 363.824219 C 127.128906 363.824219 126.136719 363.773438 125.148438 363.675781 C 124.160156 363.578125 123.175781 363.433594 122.199219 363.238281 C 121.226562 363.046875 120.261719 362.804688 119.3125 362.515625 C 118.359375 362.226562 117.425781 361.890625 116.503906 361.511719 C 115.585938 361.132812 114.6875 360.707031 113.8125 360.238281 C 112.933594 359.769531 112.082031 359.257812 111.257812 358.707031 C 110.429688 358.152344 109.632812 357.5625 108.863281 356.929688 C 108.09375 356.300781 107.359375 355.632812 106.65625 354.929688 C 105.953125 354.226562 105.285156 353.492188 104.65625 352.722656 C 104.023438 351.953125 103.433594 351.15625 102.878906 350.328125 C 102.328125 349.503906 101.816406 348.652344 101.347656 347.773438 C 100.878906 346.898438 100.453125 346 100.074219 345.082031 C 99.691406 344.160156 99.359375 343.226562 99.070312 342.277344 C 98.78125 341.324219 98.539062 340.359375 98.347656 339.386719 C 98.152344 338.410156 98.007812 337.429688 97.910156 336.4375 C 97.8125 335.449219 97.761719 334.457031 97.761719 333.460938 C 97.761719 332.46875 97.8125 331.476562 97.910156 330.488281 C 98.007812 329.496094 98.152344 328.515625 98.347656 327.539062 C 98.539062 326.5625 98.78125 325.601562 99.070312 324.648438 C 99.359375 323.699219 99.691406 322.761719 100.074219 321.84375 C 100.453125 320.925781 100.878906 320.027344 101.347656 319.152344 C 101.816406 318.273438 102.328125 317.421875 102.878906 316.59375 C 103.433594 315.769531 104.023438 314.96875 104.65625 314.203125 C 105.285156 313.433594 105.953125 312.699219 106.65625 311.996094 C 107.359375 311.292969 108.09375 310.625 108.863281 309.992188 C 109.632812 309.363281 110.429688 308.769531 111.257812 308.21875 C 112.082031 307.667969 112.933594 307.15625 113.8125 306.6875 C 114.6875 306.21875 115.585938 305.792969 116.503906 305.414062 C 117.425781 305.03125 118.359375 304.699219 119.3125 304.410156 C 120.261719 304.121094 121.226562 303.878906 122.199219 303.683594 C 123.175781 303.492188 124.160156 303.34375 125.148438 303.25 C 126.136719 303.152344 127.128906 303.101562 128.125 303.101562 C 129.117188 303.101562 130.109375 303.152344 131.101562 303.25 C 132.089844 303.34375 133.070312 303.492188 134.046875 303.683594 C 135.023438 303.878906 135.984375 304.121094 136.9375 304.410156 C 137.890625 304.699219 138.824219 305.03125 139.742188 305.414062 C 140.660156 305.792969 141.558594 306.21875 142.4375 306.6875 C 143.3125 307.15625 144.164062 307.667969 144.992188 308.21875 C 145.820312 308.769531 146.617188 309.363281 147.386719 309.992188 C 148.152344 310.625 148.890625 311.292969 149.59375 311.996094 C 150.296875 312.699219 150.964844 313.433594 151.59375 314.203125 C 152.226562 314.96875 152.816406 315.769531 153.367188 316.59375 C 153.921875 317.421875 154.433594 318.273438 154.902344 319.152344 C 155.371094 320.027344 155.792969 320.925781 156.175781 321.84375 C 156.554688 322.761719 156.890625 323.699219 157.179688 324.648438 C 157.46875 325.601562 157.707031 326.5625 157.902344 327.539062 C 158.097656 328.515625 158.242188 329.496094 158.339844 330.488281 C 158.4375 331.476562 158.484375 332.46875 158.484375 333.460938 Z M 158.484375 333.460938 " fill-opacity="1" fill-rule="nonzero"/></g><g clip-path="url(#af7fe26f9e)"><path fill="#000000" d="M 331.230469 333.460938 C 331.230469 334.457031 331.179688 335.449219 331.082031 336.4375 C 330.984375 337.429688 330.839844 338.410156 330.644531 339.386719 C 330.453125 340.359375 330.210938 341.324219 329.921875 342.277344 C 329.632812 343.226562 329.296875 344.160156 328.917969 345.082031 C 328.539062 346 328.113281 346.898438 327.644531 347.773438 C 327.175781 348.652344 326.664062 349.503906 326.113281 350.328125 C 325.558594 351.15625 324.96875 351.953125 324.335938 352.722656 C 323.707031 353.492188 323.039062 354.226562 322.335938 354.929688 C 321.632812 355.632812 320.898438 356.300781 320.128906 356.929688 C 319.359375 357.5625 318.5625 358.152344 317.734375 358.707031 C 316.910156 359.257812 316.054688 359.769531 315.179688 360.238281 C 314.300781 360.707031 313.40625 361.132812 312.484375 361.511719 C 311.566406 361.890625 310.632812 362.226562 309.679688 362.515625 C 308.730469 362.804688 307.765625 363.046875 306.789062 363.238281 C 305.816406 363.433594 304.832031 363.578125 303.84375 363.675781 C 302.855469 363.773438 301.863281 363.824219 300.867188 363.824219 C 299.871094 363.824219 298.882812 363.773438 297.890625 363.675781 C 296.902344 363.578125 295.917969 363.433594 294.945312 363.238281 C 293.96875 363.046875 293.003906 362.804688 292.054688 362.515625 C 291.101562 362.226562 290.167969 361.890625 289.25 361.511719 C 288.328125 361.132812 287.433594 360.707031 286.554688 360.238281 C 285.679688 359.769531 284.824219 359.257812 284 358.707031 C 283.171875 358.152344 282.375 357.5625 281.605469 356.929688 C 280.835938 356.300781 280.101562 355.632812 279.398438 354.929688 C 278.695312 354.226562 278.027344 353.492188 277.398438 352.722656 C 276.765625 351.953125 276.175781 351.15625 275.621094 350.328125 C 275.070312 349.503906 274.558594 348.652344 274.089844 347.773438 C 273.621094 346.898438 273.195312 346 272.816406 345.082031 C 272.4375 344.160156 272.101562 343.226562 271.8125 342.277344 C 271.523438 341.324219 271.28125 340.359375 271.089844 339.386719 C 270.894531 338.410156 270.75 337.429688 270.652344 336.4375 C 270.554688 335.449219 270.503906 334.457031 270.503906 333.460938 C 270.503906 332.46875 270.554688 331.476562 270.652344 330.488281 C 270.75 329.496094 270.894531 328.515625 271.089844 327.539062 C 271.28125 326.5625 271.523438 325.601562 271.8125 324.648438 C 272.101562 323.699219 272.4375 322.761719 272.816406 321.84375 C 273.195312 320.925781 273.621094 320.027344 274.089844 319.152344 C 274.558594 318.273438 275.070312 317.421875 275.621094 316.59375 C 276.175781 315.769531 276.765625 314.96875 277.398438 314.203125 C 278.027344 313.433594 278.695312 312.699219 279.398438 311.996094 C 280.101562 311.292969 280.835938 310.625 281.605469 309.992188 C 282.375 309.363281 283.171875 308.769531 284 308.21875 C 284.824219 307.667969 285.679688 307.15625 286.554688 306.6875 C 287.433594 306.21875 288.328125 305.792969 289.25 305.414062 C 290.167969 305.03125 291.101562 304.699219 292.054688 304.410156 C 293.003906 304.121094 293.96875 303.878906 294.945312 303.683594 C 295.917969 303.492188 296.902344 303.34375 297.890625 303.25 C 298.882812 303.152344 299.871094 303.101562 300.867188 303.101562 C 301.863281 303.101562 302.855469 303.152344 303.84375 303.25 C 304.832031 303.34375 305.816406 303.492188 306.789062 303.683594 C 307.765625 303.878906 308.730469 304.121094 309.679688 304.410156 C 310.632812 304.699219 311.566406 305.03125 312.484375 305.414062 C 313.40625 305.792969 314.300781 306.21875 315.179688 306.6875 C 316.054688 307.15625 316.910156 307.667969 317.734375 308.21875 C 318.5625 308.769531 319.359375 309.363281 320.128906 309.992188 C 320.898438 310.625 321.632812 311.292969 322.335938 311.996094 C 323.039062 312.699219 323.707031 313.433594 324.335938 314.203125 C 324.96875 314.96875 325.558594 315.769531 326.113281 316.59375 C 326.664062 317.421875 327.175781 318.273438 327.644531 319.152344 C 328.113281 320.027344 328.539062 320.925781 328.917969 321.84375 C 329.296875 322.761719 329.632812 323.699219 329.921875 324.648438 C 330.210938 325.601562 330.453125 326.5625 330.644531 327.539062 C 330.839844 328.515625 330.984375 329.496094 331.082031 330.488281 C 331.179688 331.476562 331.230469 332.46875 331.230469 333.460938 Z M 331.230469 333.460938 " fill-opacity="1" fill-rule="nonzero"/></g><g fill="#000000" fill-opacity="1"><g transform="translate(181.796858, 174.749989)"><g><path d="M 2.28125 -2.796875 C 2.28125 -3.890625 2.570312 -4.710938 3.15625 -5.265625 C 3.75 -5.828125 4.601562 -6.109375 5.71875 -6.109375 C 6.800781 -6.109375 7.640625 -5.820312 8.234375 -5.25 C 8.828125 -4.675781 9.125 -3.859375 9.125 -2.796875 C 9.125 -1.765625 8.820312 -0.953125 8.21875 -0.359375 C 7.625 0.234375 6.789062 0.53125 5.71875 0.53125 C 4.625 0.53125 3.773438 0.238281 3.171875 -0.34375 C 2.578125 -0.925781 2.28125 -1.742188 2.28125 -2.796875 Z M 2.28125 -2.796875 "/></g></g></g></svg>